<?xml version="1.0" standalone="no"?>
<!DOCTYPE svg PUBLIC "-//W3C//DTD SVG 20010904//EN"
 "http://www.w3.org/TR/2001/REC-SVG-20010904/DTD/svg10.dtd">
<svg version="1.0" xmlns="http://www.w3.org/2000/svg"
 width="1024.000000pt" height="1024.000000pt" viewBox="0 0 1024.000000 1024.000000"
 preserveAspectRatio="xMidYMid meet">

<g transform="translate(0.000000,1024.000000) scale(0.100000,-0.100000)"
fill="#000000" stroke="none">
<path d="M4504 2874 c-18 -14 -18 -15 4 -4 12 6 22 13 22 15 0 8 -5 6 -26 -11z"/>
<path d="M4454 2844 c-18 -14 -18 -15 4 -4 12 6 22 13 22 15 0 8 -5 6 -26 -11z"/>
<path d="M5420 2856 c0 -2 8 -10 18 -17 15 -13 16 -12 3 4 -13 16 -21 21 -21
13z"/>
<path d="M4305 2770 c-299 -146 -580 -162 -767 -44 -23 15 -35 18 -32 10 7
-18 95 -66 164 -90 86 -29 267 -26 385 7 50 14 113 35 140 48 28 12 52 23 55
23 15 3 146 71 148 78 2 4 10 8 18 8 8 0 14 5 14 10 0 6 -1 10 -2 9 -2 0 -57
-27 -123 -59z"/>
<path d="M5482 2800 c7 -11 21 -23 30 -26 10 -3 18 -10 18 -15 0 -5 7 -9 15
-9 8 0 15 -4 15 -9 0 -9 158 -112 250 -163 25 -14 77 -37 115 -51 278 -101
527 -47 677 147 29 37 27 36 -27 -15 -98 -91 -187 -133 -315 -148 -205 -25
-479 74 -733 266 -33 25 -52 35 -45 23z"/>
<path d="M3460 2775 c13 -14 26 -25 28 -25 3 0 -5 11 -18 25 -13 14 -26 25
-28 25 -3 0 5 -11 18 -25z"/>
<path d="M3377 1538 c-7 -5 0 -6 17 -4 16 3 31 7 33 10 8 8 -37 2 -50 -6z"/>
<path d="M4017 1538 c-7 -5 0 -6 17 -4 16 3 31 7 33 10 8 8 -37 2 -50 -6z"/>
<path d="M4657 1538 c-7 -5 0 -6 17 -4 16 3 31 7 33 10 8 8 -37 2 -50 -6z"/>
<path d="M5297 1538 c-7 -5 0 -6 17 -4 16 3 31 7 33 10 8 8 -37 2 -50 -6z"/>
<path d="M5937 1538 c-7 -5 0 -6 17 -4 16 3 31 7 33 10 8 8 -37 2 -50 -6z"/>
<path d="M6577 1538 c-7 -5 0 -6 17 -4 16 3 31 7 33 10 8 8 -37 2 -50 -6z"/>
<path d="M3224 1527 c12 -9 16 -19 11 -27 -5 -9 -4 -11 3 -6 8 5 10 1 5 -9 -4
-12 -8 -13 -13 -5 -4 7 -12 10 -18 6 -6 -3 -14 -1 -18 5 -4 8 -3 9 4 5 8 -5
10 -2 6 8 -4 12 -9 12 -18 3 -20 -18 -1 -31 157 -107 953 -457 2039 -530 3050
-204 209 68 541 209 530 227 -3 5 -1 7 5 4 12 -8 42 1 42 12 0 4 -6 8 -12 8
-67 4 -184 17 -188 21 -5 5 140 -5 203 -14 23 -4 37 -2 37 5 0 6 9 11 20 11
20 0 92 59 74 61 -5 0 -20 3 -34 5 -24 4 -24 4 -5 -10 24 -18 12 -34 -31 -42
-21 -3 -25 -2 -14 5 8 5 18 7 22 5 4 -3 5 2 2 10 -5 13 -8 13 -20 2 -13 -13
-46 -14 -109 -2 -24 5 -26 4 -12 -4 9 -6 17 -16 17 -23 0 -9 -2 -9 -8 -1 -8
13 -66 23 -162 28 -36 2 -83 7 -105 10 -33 6 -37 5 -23 -6 8 -7 18 -20 21 -28
4 -12 6 -12 6 2 1 15 11 17 86 14 47 -1 89 -6 93 -11 4 -4 -26 -5 -65 -3 -40
3 -73 2 -73 -3 0 -4 6 -9 13 -12 6 -2 -8 -4 -33 -4 -25 0 -56 -4 -70 -7 -46
-13 -75 -17 -69 -11 4 3 17 8 30 11 13 3 31 7 39 9 8 2 18 4 23 4 11 1 8 31
-3 31 -5 0 -10 -6 -10 -12 0 -10 -3 -9 -9 1 -6 9 -10 10 -12 2 -4 -12 -35 -21
-84 -25 -36 -3 -55 2 -55 16 0 6 20 8 50 5 28 -3 50 -1 50 4 0 5 -22 9 -50 9
-27 0 -50 5 -50 10 0 6 5 10 12 10 20 0 1 11 -28 16 -27 5 -28 4 -10 -9 12 -9
16 -19 11 -27 -5 -9 -4 -11 3 -6 8 5 10 1 5 -9 -3 -11 -8 -13 -12 -6 -4 6 -18
9 -30 6 -13 -2 -29 -1 -35 2 -6 4 -22 8 -36 9 -14 1 -38 5 -55 8 -24 5 -26 4
-12 -4 9 -6 17 -16 17 -23 0 -9 -2 -9 -8 -1 -8 13 -66 23 -162 28 -36 2 -83 7
-105 10 -33 6 -37 5 -23 -6 8 -7 18 -20 21 -28 4 -12 6 -12 6 2 1 15 11 17 86
14 47 -1 89 -6 93 -11 4 -4 -26 -5 -65 -3 -40 3 -73 2 -73 -3 0 -4 6 -9 13
-12 6 -2 -8 -4 -33 -4 -25 0 -56 -4 -70 -7 -46 -13 -75 -17 -69 -11 4 3 17 8
30 11 13 3 31 7 39 9 8 2 18 4 23 4 11 1 8 31 -3 31 -5 0 -10 -6 -10 -12 0
-10 -3 -9 -9 1 -6 9 -10 10 -12 2 -4 -12 -35 -21 -84 -25 -36 -3 -55 2 -55 16
0 6 20 8 50 5 28 -3 50 -1 50 4 0 5 -22 9 -50 9 -27 0 -50 5 -50 10 0 6 5 10
12 10 20 0 1 11 -28 16 -27 5 -28 4 -10 -9 12 -9 16 -19 11 -27 -5 -9 -4 -11
3 -6 8 5 10 1 5 -9 -3 -11 -8 -13 -12 -6 -4 6 -18 9 -30 6 -13 -2 -29 -1 -35
2 -6 4 -22 8 -36 9 -14 1 -38 5 -55 8 -24 5 -26 4 -12 -4 9 -6 17 -16 17 -23
0 -9 -2 -9 -8 -1 -8 13 -66 23 -162 28 -36 2 -83 7 -105 10 -33 6 -37 5 -23
-6 8 -7 18 -20 21 -28 4 -12 6 -12 6 2 1 15 11 17 86 14 47 -1 89 -6 93 -11 4
-4 -26 -5 -65 -3 -40 3 -73 2 -73 -3 0 -4 6 -9 13 -12 6 -2 -8 -4 -33 -4 -25
0 -56 -4 -70 -7 -46 -13 -75 -17 -69 -11 4 3 17 8 30 11 13 3 31 7 39 9 8 2
18 4 23 4 11 1 8 31 -3 31 -5 0 -10 -6 -10 -12 0 -10 -3 -9 -9 1 -6 9 -10 10
-12 2 -4 -12 -35 -21 -84 -25 -36 -3 -55 2 -55 16 0 6 20 8 50 5 28 -3 50 -1
50 4 0 5 -22 9 -50 9 -27 0 -50 5 -50 10 0 6 5 10 12 10 20 0 1 11 -28 16 -27
5 -28 4 -10 -9 12 -9 16 -19 11 -27 -5 -9 -4 -11 3 -6 8 5 10 1 5 -9 -3 -11
-8 -13 -12 -6 -4 6 -18 9 -30 6 -13 -2 -29 -1 -35 2 -6 4 -22 8 -36 9 -14 1
-38 5 -55 8 -24 5 -26 4 -12 -4 9 -6 17 -16 17 -23 0 -9 -2 -9 -8 -1 -8 13
-66 23 -162 28 -36 2 -83 7 -105 10 -33 6 -37 5 -23 -6 8 -7 18 -20 21 -28 4
-12 6 -12 6 2 1 15 11 17 86 14 47 -1 89 -6 93 -11 4 -4 -26 -5 -65 -3 -40 3
-73 2 -73 -3 0 -4 6 -9 13 -12 6 -2 -8 -4 -33 -4 -25 0 -56 -4 -70 -7 -46 -13
-75 -17 -69 -11 4 3 17 8 30 11 13 3 31 7 39 9 8 2 18 4 23 4 11 1 8 31 -3 31
-5 0 -10 -6 -10 -12 0 -10 -3 -9 -9 1 -6 9 -10 10 -12 2 -4 -12 -35 -21 -84
-25 -36 -3 -55 2 -55 16 0 6 20 8 50 5 28 -3 50 -1 50 4 0 5 -22 9 -50 9 -27
0 -50 5 -50 10 0 6 5 10 12 10 20 0 1 11 -28 16 -27 5 -28 4 -10 -9 12 -9 16
-19 11 -27 -5 -9 -4 -11 3 -6 8 5 10 1 5 -9 -3 -11 -8 -13 -12 -6 -4 6 -18 9
-30 6 -13 -2 -29 -1 -35 2 -6 4 -22 8 -36 9 -14 1 -38 5 -55 8 -24 5 -26 4
-12 -4 9 -6 17 -16 17 -23 0 -9 -2 -9 -8 -1 -8 13 -66 23 -162 28 -36 2 -83 7
-105 10 -33 6 -37 5 -23 -6 8 -7 18 -20 21 -28 4 -12 6 -12 6 2 1 15 11 17 86
14 47 -1 89 -6 93 -11 4 -4 -26 -5 -65 -3 -40 3 -73 2 -73 -3 0 -4 6 -9 13
-12 6 -2 -8 -4 -33 -4 -25 0 -56 -4 -70 -7 -46 -13 -75 -17 -69 -11 4 3 17 8
30 11 13 3 31 7 39 9 8 2 18 4 23 4 11 1 8 31 -3 31 -5 0 -10 -6 -10 -12 0
-10 -3 -9 -9 1 -6 9 -10 10 -12 2 -4 -12 -35 -21 -84 -25 -36 -3 -55 2 -55 16
0 6 20 8 50 5 28 -3 50 -1 50 4 0 5 -22 9 -50 9 -27 0 -50 5 -50 10 0 6 5 10
12 10 20 0 1 11 -28 16 -27 5 -28 4 -10 -9 12 -9 16 -19 11 -27 -5 -9 -4 -11
3 -6 8 5 10 1 5 -9 -3 -11 -8 -13 -12 -6 -4 6 -18 9 -30 6 -13 -2 -29 -1 -35
2 -6 4 -22 8 -36 9 -14 1 -38 5 -55 8 -24 5 -26 4 -12 -4 9 -6 17 -16 17 -23
0 -9 -2 -9 -8 -1 -8 13 -66 23 -162 28 -36 2 -83 7 -105 10 -33 6 -37 5 -23
-6 8 -7 18 -20 21 -28 4 -12 6 -12 6 2 1 15 11 17 86 14 47 -1 89 -6 93 -11 4
-4 -26 -5 -65 -3 -40 3 -73 2 -73 -3 0 -4 6 -9 13 -12 6 -2 -8 -4 -33 -4 -25
0 -56 -4 -70 -7 -46 -13 -75 -17 -69 -11 4 3 17 8 30 11 13 3 31 7 39 9 8 2
18 4 23 4 11 1 8 31 -3 31 -5 0 -10 -6 -10 -12 0 -10 -3 -9 -9 1 -6 9 -10 10
-12 2 -4 -12 -35 -21 -84 -25 -36 -3 -55 2 -55 16 0 6 20 8 50 5 28 -3 50 -1
50 4 0 5 -22 9 -50 9 -27 0 -50 5 -50 10 0 6 5 10 12 10 20 0 1 11 -28 16 -27
5 -28 4 -10 -9z m526 -48 c0 -14 -17 -10 -23 5 -4 10 -1 13 9 9 7 -3 14 -9 14
-14z m640 0 c0 -14 -17 -10 -23 5 -4 10 -1 13 9 9 7 -3 14 -9 14 -14z m640 0
c0 -14 -17 -10 -23 5 -4 10 -1 13 9 9 7 -3 14 -9 14 -14z m640 0 c0 -14 -17
-10 -23 5 -4 10 -1 13 9 9 7 -3 14 -9 14 -14z m640 0 c0 -14 -17 -10 -23 5 -4
10 -1 13 9 9 7 -3 14 -9 14 -14z m640 0 c0 -14 -17 -10 -23 5 -4 10 -1 13 9 9
7 -3 14 -9 14 -14z m-3191 -24 c13 -2 26 -7 30 -10 3 -4 -8 -4 -24 -1 -17 3
-66 9 -110 12 -44 4 -82 9 -85 12 -5 5 151 -5 189 -13z m640 0 c13 -2 26 -7
30 -10 3 -4 -8 -4 -24 -1 -17 3 -66 9 -110 12 -44 4 -82 9 -85 12 -5 5 151 -5
189 -13z m640 0 c13 -2 26 -7 30 -10 3 -4 -8 -4 -24 -1 -17 3 -66 9 -110 12
-44 4 -82 9 -85 12 -5 5 151 -5 189 -13z m640 0 c13 -2 26 -7 30 -10 3 -4 -8
-4 -24 -1 -17 3 -66 9 -110 12 -44 4 -82 9 -85 12 -5 5 151 -5 189 -13z m640
0 c13 -2 26 -7 30 -10 3 -4 -8 -4 -24 -1 -17 3 -66 9 -110 12 -44 4 -82 9 -85
12 -5 5 151 -5 189 -13z m-2690 -20 c3 -3 -7 -4 -23 -1 -16 3 -31 8 -35 11 -3
3 7 4 23 1 16 -3 31 -8 35 -11z m640 0 c3 -3 -7 -4 -23 -1 -16 3 -31 8 -35 11
-3 3 7 4 23 1 16 -3 31 -8 35 -11z m640 0 c3 -3 -7 -4 -23 -1 -16 3 -31 8 -35
11 -3 3 7 4 23 1 16 -3 31 -8 35 -11z m640 0 c3 -3 -7 -4 -23 -1 -16 3 -31 8
-35 11 -3 3 7 4 23 1 16 -3 31 -8 35 -11z m640 0 c3 -3 -7 -4 -23 -1 -16 3
-31 8 -35 11 -3 3 7 4 23 1 16 -3 31 -8 35 -11z m640 0 c3 -3 -7 -4 -23 -1
-16 3 -31 8 -35 11 -3 3 7 4 23 1 16 -3 31 -8 35 -11z"/>
<path d="M3503 1523 c9 -2 25 -2 35 0 9 3 1 5 -18 5 -19 0 -27 -2 -17 -5z"/>
<path d="M3663 1523 c9 -2 25 -2 35 0 9 3 1 5 -18 5 -19 0 -27 -2 -17 -5z"/>
<path d="M4143 1523 c9 -2 25 -2 35 0 9 3 1 5 -18 5 -19 0 -27 -2 -17 -5z"/>
<path d="M4303 1523 c9 -2 25 -2 35 0 9 3 1 5 -18 5 -19 0 -27 -2 -17 -5z"/>
<path d="M4783 1523 c9 -2 25 -2 35 0 9 3 1 5 -18 5 -19 0 -27 -2 -17 -5z"/>
<path d="M4943 1523 c9 -2 25 -2 35 0 9 3 1 5 -18 5 -19 0 -27 -2 -17 -5z"/>
<path d="M5423 1523 c9 -2 25 -2 35 0 9 3 1 5 -18 5 -19 0 -27 -2 -17 -5z"/>
<path d="M5583 1523 c9 -2 25 -2 35 0 9 3 1 5 -18 5 -19 0 -27 -2 -17 -5z"/>
<path d="M6063 1523 c9 -2 25 -2 35 0 9 3 1 5 -18 5 -19 0 -27 -2 -17 -5z"/>
<path d="M6223 1523 c9 -2 25 -2 35 0 9 3 1 5 -18 5 -19 0 -27 -2 -17 -5z"/>
<path d="M6703 1523 c9 -2 25 -2 35 0 9 3 1 5 -18 5 -19 0 -27 -2 -17 -5z"/>
<path d="M6863 1523 c9 -2 25 -2 35 0 9 3 1 5 -18 5 -19 0 -27 -2 -17 -5z"/>
<path d="M3210 1510 c0 -5 5 -10 10 -10 6 0 10 5 10 10 0 6 -4 10 -10 10 -5 0
-10 -4 -10 -10z"/>
<path d="M3822 1504 c-11 -13 -9 -14 14 -10 31 6 40 13 30 23 -4 4 -11 1 -15
-6 -5 -8 -10 -9 -12 -3 -2 6 -10 4 -17 -4z"/>
<path d="M4462 1504 c-11 -13 -9 -14 14 -10 31 6 40 13 30 23 -4 4 -11 1 -15
-6 -5 -8 -10 -9 -12 -3 -2 6 -10 4 -17 -4z"/>
<path d="M5102 1504 c-11 -13 -9 -14 14 -10 31 6 40 13 30 23 -4 4 -11 1 -15
-6 -5 -8 -10 -9 -12 -3 -2 6 -10 4 -17 -4z"/>
<path d="M5742 1504 c-11 -13 -9 -14 14 -10 31 6 40 13 30 23 -4 4 -11 1 -15
-6 -5 -8 -10 -9 -12 -3 -2 6 -10 4 -17 -4z"/>
<path d="M6382 1504 c-11 -13 -9 -14 14 -10 31 6 40 13 30 23 -4 4 -11 1 -15
-6 -5 -8 -10 -9 -12 -3 -2 6 -10 4 -17 -4z"/>
<path d="M7050 1510 c0 -5 5 -10 10 -10 6 0 10 5 10 10 0 6 -4 10 -10 10 -5 0
-10 -4 -10 -10z"/>
</g>
</svg>
