<?xml version="1.0" encoding="UTF-8"?>
<!DOCTYPE svg PUBLIC "-//W3C//DTD SVG 1.1//EN" "http://www.w3.org/Graphics/SVG/1.1/DTD/svg11.dtd">
<svg xmlns="http://www.w3.org/2000/svg" version="1.1" width="587px" height="587px" style="shape-rendering:geometricPrecision; text-rendering:geometricPrecision; image-rendering:optimizeQuality; fill-rule:evenodd; clip-rule:evenodd" xmlns:xlink="http://www.w3.org/1999/xlink">
<g><path style="opacity:1" fill="#e6e6e5" d="M -0.5,-0.5 C 195.167,-0.5 390.833,-0.5 586.5,-0.5C 586.5,195.167 586.5,390.833 586.5,586.5C 390.833,586.5 195.167,586.5 -0.5,586.5C -0.5,390.833 -0.5,195.167 -0.5,-0.5 Z"/></g>
<g><path style="opacity:1" fill="#ed7d31" d="M 0.5,0.5 C 195.5,0.5 390.5,0.5 585.5,0.5C 585.5,195.5 585.5,390.5 585.5,585.5C 390.5,585.5 195.5,585.5 0.5,585.5C 0.5,390.5 0.5,195.5 0.5,0.5 Z"/></g>
<g><path style="opacity:1" fill="#fefcfb" d="M 127.5,233.5 C 131.36,233.192 135.026,232.525 138.5,231.5C 151.057,230.945 163.391,232.278 175.5,235.5C 175.83,227.107 175.33,218.773 174,210.5C 170.586,202.92 164.753,198.587 156.5,197.5C 149.011,196.344 141.345,196.178 133.5,197C 132.263,197.232 131.263,197.732 130.5,198.5C 122.618,200.412 114.952,202.578 107.5,205C 107,204.5 106.5,204 106,203.5C 105.333,198.833 105.333,194.167 106,189.5C 114.744,183.136 124.577,179.303 135.5,178C 148.265,176.978 160.932,177.645 173.5,180C 187.113,185.282 195.28,195.115 198,209.5C 198.333,230.833 198.667,252.167 199,273.5C 200.318,280.463 202.485,287.13 205.5,293.5C 205.563,295.481 204.896,297.148 203.5,298.5C 199.676,301.494 195.51,303.827 191,305.5C 189.105,305.385 187.438,304.718 186,303.5C 182.606,299.102 179.606,294.435 177,289.5C 157.588,309.818 135.422,313.652 110.5,301C 99.3622,290.53 95.1955,277.697 98,262.5C 102.389,247.278 112.222,237.611 127.5,233.5 Z"/></g>
<g><path style="opacity:1" fill="#fefcfb" d="M 430.5,176.5 C 444.598,176.072 458.265,178.239 471.5,183C 473.609,184.141 475.442,185.641 477,187.5C 477.802,192.419 477.635,197.252 476.5,202C 470.936,201.93 465.603,200.596 460.5,198C 449.899,195.261 439.232,194.928 428.5,197C 417.617,201.113 414.451,208.613 419,219.5C 420.833,221.333 422.667,223.167 424.5,225C 438.494,230.127 452.494,235.127 466.5,240C 484.5,251.119 489.333,266.619 481,286.5C 473.324,298.267 462.49,305.433 448.5,308C 429.373,311.067 411.373,308.067 394.5,299C 393.874,298.25 393.374,297.416 393,296.5C 392.198,291.581 392.365,286.748 393.5,282C 395.167,281.333 396.833,281.333 398.5,282C 416.82,290.666 435.486,291.666 454.5,285C 463.305,276.931 463.638,268.597 455.5,260C 440.586,254.04 425.586,248.374 410.5,243C 397.271,234.373 391.771,222.206 394,206.5C 396.444,196.785 401.944,189.285 410.5,184C 416.878,180.379 423.545,177.879 430.5,176.5 Z"/></g>
<g><path style="opacity:1" fill="#fefcfa" d="M 254.5,254.5 C 254.41,257.152 255.076,259.485 256.5,261.5C 258.095,267.121 259.595,272.788 261,278.5C 268.846,247.935 276.179,217.268 283,186.5C 283.346,184.152 284.513,182.319 286.5,181C 293.5,180.333 300.5,180.333 307.5,181C 309.041,182.579 310.208,184.413 311,186.5C 318.122,217.536 325.455,248.536 333,279.5C 338.476,260.241 343.642,240.908 348.5,221.5C 349.924,219.485 350.59,217.152 350.5,214.5C 352.82,205.555 354.986,196.555 357,187.5C 357.914,185.336 359.081,183.336 360.5,181.5C 367.45,180.37 374.45,180.203 381.5,181C 382.081,181.893 382.415,182.893 382.5,184C 370.674,223.646 358.34,263.146 345.5,302.5C 344.335,303.584 343.002,304.417 341.5,305C 335.167,305.667 328.833,305.667 322.5,305C 321.667,304.167 320.833,303.333 320,302.5C 316.212,287.144 312.379,271.811 308.5,256.5C 308.59,253.848 307.924,251.515 306.5,249.5C 305.373,243.454 304.04,237.454 302.5,231.5C 302.59,228.848 301.924,226.515 300.5,224.5C 299.496,219.484 298.33,214.484 297,209.5C 292.58,221.848 289.413,234.515 287.5,247.5C 286.076,249.515 285.41,251.848 285.5,254.5C 281.896,270.416 277.896,286.25 273.5,302C 272.556,303.477 271.223,304.477 269.5,305C 263.5,305.667 257.5,305.667 251.5,305C 250.584,304.626 249.75,304.126 249,303.5C 243.676,287.864 238.509,272.197 233.5,256.5C 233.59,253.848 232.924,251.515 231.5,249.5C 226.701,233.102 221.701,216.769 216.5,200.5C 216.59,197.848 215.924,195.515 214.5,193.5C 213.839,190.512 213.172,187.512 212.5,184.5C 212.57,183.228 212.903,182.062 213.5,181C 220.167,180.333 226.833,180.333 233.5,181C 234.667,182.167 235.833,183.333 237,184.5C 242.941,207.82 248.774,231.153 254.5,254.5 Z"/></g>
<g><path style="opacity:1" fill="#ef995f" d="M 156.5,197.5 C 147.8,197.289 139.133,197.623 130.5,198.5C 131.263,197.732 132.263,197.232 133.5,197C 141.345,196.178 149.011,196.344 156.5,197.5 Z"/></g>
<g><path style="opacity:1" fill="#f0a370" d="M 214.5,193.5 C 215.924,195.515 216.59,197.848 216.5,200.5C 215.076,198.485 214.41,196.152 214.5,193.5 Z"/></g>
<g><path style="opacity:1" fill="#f6c8aa" d="M 350.5,214.5 C 350.59,217.152 349.924,219.485 348.5,221.5C 348.41,218.848 349.076,216.515 350.5,214.5 Z"/></g>
<g><path style="opacity:1" fill="#f1a97a" d="M 300.5,224.5 C 301.924,226.515 302.59,228.848 302.5,231.5C 301.076,229.485 300.41,227.152 300.5,224.5 Z"/></g>
<g><path style="opacity:1" fill="#f6cbae" d="M 138.5,231.5 C 135.026,232.525 131.36,233.192 127.5,233.5C 130.845,231.783 134.511,231.116 138.5,231.5 Z"/></g>
<g><path style="opacity:1" fill="#ed7e32" d="M 139.5,248.5 C 151.555,248.312 163.555,248.979 175.5,250.5C 177.862,275.443 166.529,288.443 141.5,289.5C 128.592,289.425 122.259,282.925 122.5,270C 122.435,258.238 128.102,251.071 139.5,248.5 Z"/></g>
<g><path style="opacity:1" fill="#f1a26e" d="M 231.5,249.5 C 232.924,251.515 233.59,253.848 233.5,256.5C 232.076,254.485 231.41,252.152 231.5,249.5 Z"/></g>
<g><path style="opacity:1" fill="#f1a573" d="M 287.5,247.5 C 287.59,250.152 286.924,252.485 285.5,254.5C 285.41,251.848 286.076,249.515 287.5,247.5 Z"/></g>
<g><path style="opacity:1" fill="#f1aa7b" d="M 306.5,249.5 C 307.924,251.515 308.59,253.848 308.5,256.5C 307.076,254.485 306.41,252.152 306.5,249.5 Z"/></g>
<g><path style="opacity:1" fill="#f6c8aa" d="M 254.5,254.5 C 255.924,256.515 256.59,258.848 256.5,261.5C 255.076,259.485 254.41,257.152 254.5,254.5 Z"/></g>
<g><path style="opacity:1" fill="#fefcfa" d="M 459.5,334.5 C 473.161,333.411 486.494,334.911 499.5,339C 500.701,339.903 501.535,341.069 502,342.5C 502.229,369.156 493.062,391.989 474.5,411C 471.582,413.41 469.582,412.91 468.5,409.5C 474.232,395.908 478.732,381.908 482,367.5C 484.873,357.368 481.04,351.868 470.5,351C 455.74,350.177 441.073,351.01 426.5,353.5C 422.925,352.006 422.591,349.839 425.5,347C 436.038,340.376 447.371,336.21 459.5,334.5 Z"/></g>
<g><path style="opacity:1" fill="#fefcfb" d="M 325.5,427.5 C 318.626,427.521 311.959,428.187 305.5,429.5C 220.411,432.198 145.911,405.865 82,350.5C 80.627,348.305 80.2937,345.971 81,343.5C 81.7247,342.941 82.5581,342.608 83.5,342.5C 184.642,399.347 291.642,413.18 404.5,384C 421.895,378.98 438.895,372.98 455.5,366C 460.444,364.971 463.777,366.804 465.5,371.5C 464.74,373.437 463.74,375.27 462.5,377C 420.948,404.797 375.281,421.631 325.5,427.5 Z"/></g>
<g><path style="opacity:1" fill="#f29a5c" d="M 325.5,427.5 C 319.053,428.936 312.386,429.603 305.5,429.5C 311.959,428.187 318.626,427.521 325.5,427.5 Z"/></g>
</svg>
