<?xml version="1.0" encoding="UTF-8"?>
<!DOCTYPE svg PUBLIC "-//W3C//DTD SVG 1.1//EN" "http://www.w3.org/Graphics/SVG/1.1/DTD/svg11.dtd">
<svg xmlns="http://www.w3.org/2000/svg" version="1.1" width="562px" height="562px" style="shape-rendering:geometricPrecision; text-rendering:geometricPrecision; image-rendering:optimizeQuality; fill-rule:evenodd; clip-rule:evenodd" xmlns:xlink="http://www.w3.org/1999/xlink">
<g><path style="opacity:1" fill="#fefefe" d="M -0.5,-0.5 C 186.833,-0.5 374.167,-0.5 561.5,-0.5C 561.5,186.833 561.5,374.167 561.5,561.5C 374.167,561.5 186.833,561.5 -0.5,561.5C -0.5,374.167 -0.5,186.833 -0.5,-0.5 Z"/></g>
<g><path style="opacity:1" fill="#0c0c0c" d="M 78.5,242.5 C 97.2524,240.79 109.752,248.79 116,266.5C 116.499,271.489 116.666,276.489 116.5,281.5C 97.1667,281.5 77.8333,281.5 58.5,281.5C 57.8484,297.728 65.1817,308.228 80.5,313C 96.0332,314.661 106.2,308.161 111,293.5C 112.356,292.62 113.856,292.286 115.5,292.5C 114.441,304.117 108.441,311.951 97.5,316C 71.774,321.595 56.9407,311.428 53,285.5C 51.3031,264.865 59.8031,250.532 78.5,242.5 Z"/></g>
<g><path style="opacity:1" fill="#0d0d0d" d="M 377.5,296.5 C 377.5,295.5 377.5,294.5 377.5,293.5C 379.554,293.365 381.221,294.032 382.5,295.5C 386.015,307.277 394.015,313.277 406.5,313.5C 412.463,313.124 418.129,311.624 423.5,309C 428.259,304.509 429.759,299.009 428,292.5C 427.215,290.714 426.049,289.214 424.5,288C 410.876,284.126 397.543,279.459 384.5,274C 374.957,258.07 379.29,247.736 397.5,243C 409.689,240.836 420.189,244.002 429,252.5C 431.174,256.546 432.007,260.879 431.5,265.5C 429.833,265.5 428.167,265.5 426.5,265.5C 426.741,255.842 422.074,250.009 412.5,248C 402.225,245.65 393.392,248.15 386,255.5C 383.382,261.495 384.549,266.662 389.5,271C 400.575,275.135 411.908,278.468 423.5,281C 435.058,287.556 437.558,296.723 431,308.5C 424.037,315.045 415.704,318.045 406,317.5C 390.568,318.202 381.068,311.202 377.5,296.5 Z"/></g>
<g><path style="opacity:1" fill="#0f0f0f" d="M 445.5,297.5 C 445.5,296.167 445.5,294.833 445.5,293.5C 446.833,293.5 448.167,293.5 449.5,293.5C 454.663,308.919 465.33,315.419 481.5,313C 496.214,309.255 499.88,300.922 492.5,288C 482.891,284.847 473.225,281.847 463.5,279C 450.107,276.048 444.94,267.881 448,254.5C 453.932,246.534 461.932,242.534 472,242.5C 479.808,242.659 486.975,244.826 493.5,249C 498.176,253.52 500.176,259.02 499.5,265.5C 497.833,265.5 496.167,265.5 494.5,265.5C 494.047,255.874 489.047,250.041 479.5,248C 470.38,246.054 462.213,247.888 455,253.5C 451.34,259.716 451.84,265.549 456.5,271C 467.751,274.584 479.084,277.918 490.5,281C 502.429,287.358 505.263,296.525 499,308.5C 486.921,318.913 473.421,321.079 458.5,315C 450.9,311.57 446.567,305.737 445.5,297.5 Z"/></g>
<g><path style="opacity:1" fill="#0a0a0a" d="M 199.5,305.5 C 199.217,304.711 198.717,304.044 198,303.5C 197.5,316.496 197.333,329.496 197.5,342.5C 195.833,342.5 194.167,342.5 192.5,342.5C 192.5,309.833 192.5,277.167 192.5,244.5C 194.167,244.5 195.833,244.5 197.5,244.5C 197.334,249.511 197.501,254.511 198,259.5C 208.464,242.018 222.964,237.851 241.5,247C 251.467,255.435 256.8,266.268 257.5,279.5C 256.876,307.968 242.542,320.468 214.5,317C 208.148,314.801 203.148,310.967 199.5,305.5 Z"/></g>
<g><path style="opacity:1" fill="#0c0c0c" d="M 328.5,242.5 C 355.064,241.73 368.064,254.73 367.5,281.5C 347.833,281.5 328.167,281.5 308.5,281.5C 309.034,303.204 320.034,313.704 341.5,313C 351.333,309.833 357.833,303.333 361,293.5C 362.356,292.62 363.856,292.286 365.5,292.5C 363.961,303.743 357.961,311.576 347.5,316C 333.551,320.295 321.384,317.462 311,307.5C 303.524,294.713 301.524,281.046 305,266.5C 309.018,254.65 316.851,246.65 328.5,242.5 Z"/></g>
<g><path style="opacity:1" fill="#0e0e0e" d="M 122.5,245.5 C 124.628,244.371 126.961,244.204 129.5,245C 137.025,254.357 144.358,263.857 151.5,273.5C 159.276,264.131 166.943,254.631 174.5,245C 176.5,244.333 178.5,244.333 180.5,245C 173.049,255.452 165.216,265.619 157,275.5C 156.333,277.5 156.333,279.5 157,281.5C 165.692,292.692 174.192,304.025 182.5,315.5C 178.628,316.991 175.461,315.991 173,312.5C 166.309,302.439 159.143,292.772 151.5,283.5C 143.768,293.283 136.268,303.283 129,313.5C 126.62,316.275 123.787,316.942 120.5,315.5C 129.745,303.344 138.745,291.011 147.5,278.5C 139.495,267.174 131.162,256.174 122.5,245.5 Z"/></g>
<g><path style="opacity:1" fill="#060606" d="M 269.5,244.5 C 271.167,244.5 272.833,244.5 274.5,244.5C 274.334,249.179 274.501,253.845 275,258.5C 281.37,248.398 290.537,243.731 302.5,244.5C 302.5,246.167 302.5,247.833 302.5,249.5C 289.659,248.829 280.826,254.495 276,266.5C 274.544,283.097 274.044,299.763 274.5,316.5C 272.833,316.5 271.167,316.5 269.5,316.5C 269.5,292.5 269.5,268.5 269.5,244.5 Z"/></g>
<g><path style="opacity:1" fill="#fcfcfc" d="M 217.5,247.5 C 235.759,245.591 246.926,253.591 251,271.5C 253.353,285.431 249.853,297.597 240.5,308C 228.042,315.92 216.209,315.087 205,305.5C 199.424,297.587 196.924,288.753 197.5,279C 197.313,263.821 203.98,253.321 217.5,247.5 Z"/></g>
<g><path style="opacity:1" fill="#fbfbfb" d="M 110.5,269.5 C 110.5,271.5 110.5,273.5 110.5,275.5C 93.5,275.5 76.5,275.5 59.5,275.5C 59.5,274.167 59.5,272.833 59.5,271.5C 62.1478,256.686 70.9812,248.686 86,247.5C 99.6842,248.684 107.851,256.017 110.5,269.5 Z"/></g>
<g><path style="opacity:1" fill="#fcfcfc" d="M 360.5,269.5 C 360.5,271.5 360.5,273.5 360.5,275.5C 343.5,275.5 326.5,275.5 309.5,275.5C 309.5,274.167 309.5,272.833 309.5,271.5C 313.431,253.859 324.431,246.026 342.5,248C 352.702,251.698 358.702,258.864 360.5,269.5 Z"/></g>
<g><path style="opacity:1" fill="#cfcfcf" d="M 110.5,269.5 C 111.468,271.607 111.802,273.941 111.5,276.5C 93.8333,276.5 76.1667,276.5 58.5,276.5C 58.2155,274.585 58.5489,272.919 59.5,271.5C 59.5,272.833 59.5,274.167 59.5,275.5C 76.5,275.5 93.5,275.5 110.5,275.5C 110.5,273.5 110.5,271.5 110.5,269.5 Z"/></g>
<g><path style="opacity:1" fill="#c0c0c0" d="M 360.5,269.5 C 361.468,271.607 361.802,273.941 361.5,276.5C 343.833,276.5 326.167,276.5 308.5,276.5C 308.216,274.585 308.549,272.919 309.5,271.5C 309.5,272.833 309.5,274.167 309.5,275.5C 326.5,275.5 343.5,275.5 360.5,275.5C 360.5,273.5 360.5,271.5 360.5,269.5 Z"/></g>
<g><path style="opacity:1" fill="#727272" d="M 382.5,295.5 C 381.221,294.032 379.554,293.365 377.5,293.5C 377.5,294.5 377.5,295.5 377.5,296.5C 376.566,295.432 376.232,294.099 376.5,292.5C 378.5,292.5 380.5,292.5 382.5,292.5C 382.5,293.5 382.5,294.5 382.5,295.5 Z"/></g>
<g><path style="opacity:1" fill="#5e5e5e" d="M 449.5,293.5 C 448.167,293.5 446.833,293.5 445.5,293.5C 445.5,294.833 445.5,296.167 445.5,297.5C 444.549,296.081 444.216,294.415 444.5,292.5C 446.415,292.216 448.081,292.549 449.5,293.5 Z"/></g>
<g><path style="opacity:1" fill="#8e8e8e" d="M 199.5,305.5 C 198.833,317.833 198.167,330.167 197.5,342.5C 197.333,329.496 197.5,316.496 198,303.5C 198.717,304.044 199.217,304.711 199.5,305.5 Z"/></g>
</svg>
